<svg xmlns="http://www.w3.org/2000/svg" xmlns:xlink="http://www.w3.org/1999/xlink" width="80" zoomAndPan="magnify" viewBox="0 0 60 60" height="80" preserveAspectRatio="xMidYMid meet" version="1.0"><defs><clipPath id="341ae2768b"><path d="M 30 0 C 13.429688 0 0 13.429688 0 30 C 0 46.570312 13.429688 60 30 60 C 46.570312 60 60 46.570312 60 30 C 60 13.429688 46.570312 0 30 0 " clip-rule="nonzero"/></clipPath><clipPath id="5e3ff35691"><path d="M 9.886719 9.246094 L 48 9.246094 L 48 33 L 9.886719 33 Z M 9.886719 9.246094 " clip-rule="nonzero"/></clipPath><clipPath id="18abe59fc7"><path d="M 10.273438 17 L 54.136719 17 L 54.136719 50.476562 L 10.273438 50.476562 Z M 10.273438 17 " clip-rule="nonzero"/></clipPath></defs><rect x="-6" width="72" fill="#ffffff" y="-6" height="72" fill-opacity="1"/><rect x="-6" width="72" fill="#ffffff" y="-6" height="72" fill-opacity="1"/><rect x="-6" width="72" fill="#ffffff" y="-6" height="72" fill-opacity="1"/><g clip-path="url(#341ae2768b)"><rect x="-6" width="72" fill="#000000" y="-6" height="72" fill-opacity="1"/></g><g clip-path="url(#5e3ff35691)"><path fill="#00ffff" d="M 31.46875 20.792969 C 36.988281 18.90625 42.351562 17.722656 47.121094 17.226562 C 43.316406 12.378906 37.371094 9.265625 30.691406 9.265625 C 19.203125 9.265625 9.886719 18.488281 9.886719 29.871094 C 9.886719 30.851562 9.957031 31.816406 10.089844 32.761719 C 14.609375 28.375 22.261719 23.945312 31.46875 20.792969 " fill-opacity="1" fill-rule="nonzero"/></g><path fill="#00ffff" d="M 16.503906 47.179688 C 16.644531 47.21875 16.78125 47.253906 16.921875 47.292969 C 16.847656 47.257812 16.773438 47.222656 16.699219 47.191406 C 16.636719 47.1875 16.570312 47.183594 16.503906 47.179688 " fill-opacity="1" fill-rule="nonzero"/><g clip-path="url(#18abe59fc7)"><path fill="#00ffff" d="M 54.132812 17.011719 C 49.246094 17.652344 43.796875 18.933594 38.183594 20.851562 C 34.707031 22.042969 31.429688 23.390625 28.425781 24.832031 L 28.425781 46.53125 L 23.828125 46.53125 L 23.828125 27.238281 C 14.523438 32.550781 9.050781 38.628906 10.558594 42.957031 C 11.261719 44.96875 13.390625 46.359375 16.542969 47.113281 C 13.640625 45.714844 11.867188 43.914062 11.613281 41.804688 C 11.503906 40.914062 11.675781 40.015625 12.09375 39.117188 C 13.546875 41.980469 15.65625 44.460938 18.222656 46.367188 L 18.222656 33.699219 C 19.113281 32.996094 20.082031 32.292969 21.121094 31.597656 L 21.121094 46.53125 L 18.445312 46.53125 C 21.882812 49.011719 26.113281 50.476562 30.691406 50.476562 C 42.183594 50.476562 51.5 41.25 51.5 29.871094 C 51.5 25.773438 50.292969 21.957031 48.210938 18.746094 C 50.246094 18.058594 52.230469 17.480469 54.132812 17.011719 " fill-opacity="1" fill-rule="nonzero"/></g></svg>